<mxfile host="app.diagrams.net" agent="Mozilla/5.0 (X11; Linux x86_64; rv:135.0) Gecko/20100101 Firefox/135.0" version="27.1.3">
  <diagram name="Page-1" id="PDzOopBcKo700JAynzis">
    <mxGraphModel dx="1226" dy="681" grid="1" gridSize="10" guides="1" tooltips="1" connect="1" arrows="1" fold="1" page="1" pageScale="1" pageWidth="850" pageHeight="1100" math="0" shadow="0">
      <root>
        <mxCell id="0" />
        <mxCell id="1" parent="0" />
        <mxCell id="Su2pd_lbUmub-vvOi-oE-9" style="edgeStyle=orthogonalEdgeStyle;rounded=0;orthogonalLoop=1;jettySize=auto;html=1;entryX=0.5;entryY=0;entryDx=0;entryDy=0;" edge="1" parent="1" source="Su2pd_lbUmub-vvOi-oE-5">
          <mxGeometry relative="1" as="geometry">
            <mxPoint x="420" y="240" as="targetPoint" />
          </mxGeometry>
        </mxCell>
        <mxCell id="Su2pd_lbUmub-vvOi-oE-5" value="Ticket&lt;span style=&quot;white-space: pre;&quot;&gt;&#x9;&lt;/span&gt;" style="swimlane;fontStyle=0;childLayout=stackLayout;horizontal=1;startSize=26;fillColor=none;horizontalStack=0;resizeParent=1;resizeParentMax=0;resizeLast=0;collapsible=1;marginBottom=0;whiteSpace=wrap;html=1;" vertex="1" parent="1">
          <mxGeometry x="350" y="20" width="140" height="52" as="geometry" />
        </mxCell>
        <mxCell id="Su2pd_lbUmub-vvOi-oE-10" value="Bug" style="swimlane;fontStyle=0;childLayout=stackLayout;horizontal=1;startSize=26;fillColor=none;horizontalStack=0;resizeParent=1;resizeParentMax=0;resizeLast=0;collapsible=1;marginBottom=0;whiteSpace=wrap;html=1;" vertex="1" parent="1">
          <mxGeometry x="50" y="350" width="140" height="52" as="geometry" />
        </mxCell>
        <mxCell id="Su2pd_lbUmub-vvOi-oE-11" value="AppCrashes" style="swimlane;fontStyle=0;childLayout=stackLayout;horizontal=1;startSize=26;fillColor=none;horizontalStack=0;resizeParent=1;resizeParentMax=0;resizeLast=0;collapsible=1;marginBottom=0;whiteSpace=wrap;html=1;" vertex="1" parent="1">
          <mxGeometry x="150" y="470" width="140" height="55" as="geometry" />
        </mxCell>
        <mxCell id="Su2pd_lbUmub-vvOi-oE-12" value="FeatureRequest" style="swimlane;fontStyle=0;childLayout=stackLayout;horizontal=1;startSize=26;fillColor=none;horizontalStack=0;resizeParent=1;resizeParentMax=0;resizeLast=0;collapsible=1;marginBottom=0;whiteSpace=wrap;html=1;" vertex="1" parent="1">
          <mxGeometry x="355" y="470" width="140" height="55" as="geometry" />
        </mxCell>
        <mxCell id="Su2pd_lbUmub-vvOi-oE-13" value="ResetPassword" style="swimlane;fontStyle=0;childLayout=stackLayout;horizontal=1;startSize=26;fillColor=none;horizontalStack=0;resizeParent=1;resizeParentMax=0;resizeLast=0;collapsible=1;marginBottom=0;whiteSpace=wrap;html=1;" vertex="1" parent="1">
          <mxGeometry x="570" y="470" width="140" height="55" as="geometry" />
        </mxCell>
        <mxCell id="Su2pd_lbUmub-vvOi-oE-15" value="" style="endArrow=block;dashed=1;endFill=0;endSize=12;html=1;rounded=0;exitX=1;exitY=0.5;exitDx=0;exitDy=0;entryX=-0.003;entryY=0.643;entryDx=0;entryDy=0;entryPerimeter=0;" edge="1" parent="1" source="Su2pd_lbUmub-vvOi-oE-10">
          <mxGeometry width="160" relative="1" as="geometry">
            <mxPoint x="350" y="320" as="sourcePoint" />
            <mxPoint x="324.43000000000006" y="330.02" as="targetPoint" />
          </mxGeometry>
        </mxCell>
        <mxCell id="Su2pd_lbUmub-vvOi-oE-17" value="" style="endArrow=block;dashed=1;endFill=0;endSize=12;html=1;rounded=0;exitX=0.5;exitY=0;exitDx=0;exitDy=0;" edge="1" parent="1" source="Su2pd_lbUmub-vvOi-oE-11" target="Su2pd_lbUmub-vvOi-oE-21">
          <mxGeometry width="160" relative="1" as="geometry">
            <mxPoint x="230" y="406" as="sourcePoint" />
            <mxPoint x="340" y="380" as="targetPoint" />
          </mxGeometry>
        </mxCell>
        <mxCell id="Su2pd_lbUmub-vvOi-oE-18" value="" style="endArrow=block;dashed=1;endFill=0;endSize=12;html=1;rounded=0;exitX=0.381;exitY=0.015;exitDx=0;exitDy=0;exitPerimeter=0;entryX=0.461;entryY=0.991;entryDx=0;entryDy=0;entryPerimeter=0;" edge="1" parent="1" source="Su2pd_lbUmub-vvOi-oE-12" target="Su2pd_lbUmub-vvOi-oE-21">
          <mxGeometry width="160" relative="1" as="geometry">
            <mxPoint x="370" y="490" as="sourcePoint" />
            <mxPoint x="408.4100000000001" y="378.03999999999996" as="targetPoint" />
          </mxGeometry>
        </mxCell>
        <mxCell id="Su2pd_lbUmub-vvOi-oE-19" value="" style="endArrow=block;dashed=1;endFill=0;endSize=12;html=1;rounded=0;exitX=0.177;exitY=0.058;exitDx=0;exitDy=0;exitPerimeter=0;entryX=0.914;entryY=0.99;entryDx=0;entryDy=0;entryPerimeter=0;" edge="1" parent="1" source="Su2pd_lbUmub-vvOi-oE-13" target="Su2pd_lbUmub-vvOi-oE-21">
          <mxGeometry width="160" relative="1" as="geometry">
            <mxPoint x="600" y="523" as="sourcePoint" />
            <mxPoint x="494.9715056069613" y="380" as="targetPoint" />
          </mxGeometry>
        </mxCell>
        <mxCell id="Su2pd_lbUmub-vvOi-oE-21" value="&lt;p style=&quot;margin:0px;margin-top:4px;text-align:center;&quot;&gt;&lt;i&gt;&amp;lt;&amp;lt;Interface&amp;gt;&amp;gt;&lt;/i&gt;&lt;br&gt;&lt;b&gt;TicketType&lt;/b&gt;&lt;/p&gt;&lt;hr size=&quot;1&quot; style=&quot;border-style:solid;&quot;&gt;&lt;br&gt;&lt;hr size=&quot;1&quot; style=&quot;border-style:solid;&quot;&gt;" style="verticalAlign=top;align=left;overflow=fill;html=1;whiteSpace=wrap;" vertex="1" parent="1">
          <mxGeometry x="325" y="240" width="190" height="98" as="geometry" />
        </mxCell>
        <mxCell id="Su2pd_lbUmub-vvOi-oE-41" style="edgeStyle=orthogonalEdgeStyle;rounded=0;orthogonalLoop=1;jettySize=auto;html=1;entryX=1;entryY=0.5;entryDx=0;entryDy=0;" edge="1" parent="1" source="Su2pd_lbUmub-vvOi-oE-38" target="Su2pd_lbUmub-vvOi-oE-21">
          <mxGeometry relative="1" as="geometry" />
        </mxCell>
        <mxCell id="Su2pd_lbUmub-vvOi-oE-38" value="&amp;lt;&amp;lt;abstract&amp;gt;&amp;gt;&lt;br&gt;&lt;b&gt;Support&lt;/b&gt;" style="swimlane;fontStyle=0;align=center;verticalAlign=top;childLayout=stackLayout;horizontal=1;startSize=40;horizontalStack=0;resizeParent=1;resizeParentMax=0;resizeLast=0;collapsible=0;marginBottom=0;html=1;whiteSpace=wrap;" vertex="1" parent="1">
          <mxGeometry x="690" y="254" width="140" height="70" as="geometry" />
        </mxCell>
        <mxCell id="Su2pd_lbUmub-vvOi-oE-40" style="edgeStyle=orthogonalEdgeStyle;rounded=0;orthogonalLoop=1;jettySize=auto;html=1;" edge="1" parent="1" source="Su2pd_lbUmub-vvOi-oE-38" target="Su2pd_lbUmub-vvOi-oE-38">
          <mxGeometry relative="1" as="geometry" />
        </mxCell>
        <mxCell id="Su2pd_lbUmub-vvOi-oE-42" value="Level1Support" style="swimlane;fontStyle=1;align=center;verticalAlign=top;childLayout=stackLayout;horizontal=1;startSize=26;horizontalStack=0;resizeParent=1;resizeParentMax=0;resizeLast=0;collapsible=1;marginBottom=0;whiteSpace=wrap;html=1;" vertex="1" parent="1">
          <mxGeometry x="880" y="110" width="160" height="34" as="geometry" />
        </mxCell>
        <mxCell id="Su2pd_lbUmub-vvOi-oE-44" value="" style="line;strokeWidth=1;fillColor=none;align=left;verticalAlign=middle;spacingTop=-1;spacingLeft=3;spacingRight=3;rotatable=0;labelPosition=right;points=[];portConstraint=eastwest;strokeColor=inherit;" vertex="1" parent="Su2pd_lbUmub-vvOi-oE-42">
          <mxGeometry y="26" width="160" height="8" as="geometry" />
        </mxCell>
        <mxCell id="Su2pd_lbUmub-vvOi-oE-46" value="Level2Support" style="swimlane;fontStyle=1;align=center;verticalAlign=top;childLayout=stackLayout;horizontal=1;startSize=26;horizontalStack=0;resizeParent=1;resizeParentMax=0;resizeLast=0;collapsible=1;marginBottom=0;whiteSpace=wrap;html=1;" vertex="1" parent="1">
          <mxGeometry x="990" y="190" width="160" height="34" as="geometry" />
        </mxCell>
        <mxCell id="Su2pd_lbUmub-vvOi-oE-47" value="" style="line;strokeWidth=1;fillColor=none;align=left;verticalAlign=middle;spacingTop=-1;spacingLeft=3;spacingRight=3;rotatable=0;labelPosition=right;points=[];portConstraint=eastwest;strokeColor=inherit;" vertex="1" parent="Su2pd_lbUmub-vvOi-oE-46">
          <mxGeometry y="26" width="160" height="8" as="geometry" />
        </mxCell>
        <mxCell id="Su2pd_lbUmub-vvOi-oE-48" value="SeniorEngineer" style="swimlane;fontStyle=1;align=center;verticalAlign=top;childLayout=stackLayout;horizontal=1;startSize=26;horizontalStack=0;resizeParent=1;resizeParentMax=0;resizeLast=0;collapsible=1;marginBottom=0;whiteSpace=wrap;html=1;" vertex="1" parent="1">
          <mxGeometry x="990" y="272" width="160" height="34" as="geometry" />
        </mxCell>
        <mxCell id="Su2pd_lbUmub-vvOi-oE-49" value="" style="line;strokeWidth=1;fillColor=none;align=left;verticalAlign=middle;spacingTop=-1;spacingLeft=3;spacingRight=3;rotatable=0;labelPosition=right;points=[];portConstraint=eastwest;strokeColor=inherit;" vertex="1" parent="Su2pd_lbUmub-vvOi-oE-48">
          <mxGeometry y="26" width="160" height="8" as="geometry" />
        </mxCell>
        <mxCell id="Su2pd_lbUmub-vvOi-oE-50" value="DevTeam" style="swimlane;fontStyle=1;align=center;verticalAlign=top;childLayout=stackLayout;horizontal=1;startSize=26;horizontalStack=0;resizeParent=1;resizeParentMax=0;resizeLast=0;collapsible=1;marginBottom=0;whiteSpace=wrap;html=1;" vertex="1" parent="1">
          <mxGeometry x="890" y="368" width="160" height="34" as="geometry" />
        </mxCell>
        <mxCell id="Su2pd_lbUmub-vvOi-oE-51" value="" style="line;strokeWidth=1;fillColor=none;align=left;verticalAlign=middle;spacingTop=-1;spacingLeft=3;spacingRight=3;rotatable=0;labelPosition=right;points=[];portConstraint=eastwest;strokeColor=inherit;" vertex="1" parent="Su2pd_lbUmub-vvOi-oE-50">
          <mxGeometry y="26" width="160" height="8" as="geometry" />
        </mxCell>
        <mxCell id="Su2pd_lbUmub-vvOi-oE-53" value="Extends" style="endArrow=block;endSize=16;endFill=0;html=1;rounded=0;exitX=0;exitY=0.75;exitDx=0;exitDy=0;entryX=0.381;entryY=0.017;entryDx=0;entryDy=0;entryPerimeter=0;" edge="1" parent="1" source="Su2pd_lbUmub-vvOi-oE-42" target="Su2pd_lbUmub-vvOi-oE-38">
          <mxGeometry width="160" relative="1" as="geometry">
            <mxPoint x="810" y="200" as="sourcePoint" />
            <mxPoint x="970" y="200" as="targetPoint" />
          </mxGeometry>
        </mxCell>
        <mxCell id="Su2pd_lbUmub-vvOi-oE-54" value="Extends" style="endArrow=block;endSize=16;endFill=0;html=1;rounded=0;exitX=0;exitY=0.25;exitDx=0;exitDy=0;" edge="1" parent="1" source="Su2pd_lbUmub-vvOi-oE-46" target="Su2pd_lbUmub-vvOi-oE-38">
          <mxGeometry width="160" relative="1" as="geometry">
            <mxPoint x="997" y="140" as="sourcePoint" />
            <mxPoint x="860" y="259" as="targetPoint" />
          </mxGeometry>
        </mxCell>
        <mxCell id="Su2pd_lbUmub-vvOi-oE-55" value="Extends" style="endArrow=block;endSize=16;endFill=0;html=1;rounded=0;exitX=0;exitY=0.5;exitDx=0;exitDy=0;entryX=1;entryY=1;entryDx=0;entryDy=0;" edge="1" parent="1" source="Su2pd_lbUmub-vvOi-oE-48" target="Su2pd_lbUmub-vvOi-oE-38">
          <mxGeometry width="160" relative="1" as="geometry">
            <mxPoint x="1000" y="250" as="sourcePoint" />
            <mxPoint x="840" y="312" as="targetPoint" />
          </mxGeometry>
        </mxCell>
        <mxCell id="Su2pd_lbUmub-vvOi-oE-56" value="Extends" style="endArrow=block;endSize=16;endFill=0;html=1;rounded=0;exitX=0;exitY=0.5;exitDx=0;exitDy=0;" edge="1" parent="1" source="Su2pd_lbUmub-vvOi-oE-50">
          <mxGeometry width="160" relative="1" as="geometry">
            <mxPoint x="1010" y="320" as="sourcePoint" />
            <mxPoint x="770" y="320" as="targetPoint" />
          </mxGeometry>
        </mxCell>
      </root>
    </mxGraphModel>
  </diagram>
</mxfile>
